<svg xmlns="http://www.w3.org/2000/svg" viewBox="16981 -4667 20 20">
  <defs>
    <style>
      .cls-1 {
        fill: #0f0a30;
      }

      .cls-2 {
        fill: none;
      }
    </style>
  </defs>
  <g id="ic-perm-contact-calendar-24px" transform="translate(16981 -4667)">
    <path id="Path_19" data-name="Path 19" class="cls-1" d="M16.333,2.667H15.5V1H13.833V2.667H7.167V1H5.5V2.667H4.667A1.666,1.666,0,0,0,3,4.333V16a1.666,1.666,0,0,0,1.667,1.667H16.333A1.672,1.672,0,0,0,18,16V4.333A1.672,1.672,0,0,0,16.333,2.667ZM10.5,5.167A2.5,2.5,0,1,1,8,7.667,2.5,2.5,0,0,1,10.5,5.167Zm5,10H5.5v-.833c0-1.667,3.333-2.583,5-2.583s5,.917,5,2.583Z" transform="translate(-0.5 -0.167)"/>
    <path id="Path_20" data-name="Path 20" class="cls-2" d="M0,0H20V20H0Z"/>
  </g>
</svg>
