<svg xmlns="http://www.w3.org/2000/svg" viewBox="18669 -4578 23.299 23.114">
  <defs>
    <style>
      .cls-1 {
        stroke: #2d2d2d;
        stroke-linecap: round;
        stroke-linejoin: round;
        stroke-miterlimit: 10;
        stroke-width: 2px;
      }

      .cls-2 {
        fill: #9692b7;
      }
    </style>
  </defs>
  <g id="phone" transform="translate(18668.426 -4578.086)">
    <g id="Group_759" data-name="Group 759">
      <g id="Group_758" data-name="Group 758">
        <path id="Path_21" data-name="Path 21" class="cls-1" d="M12.2,11.6"/>
      </g>
    </g>
    <g id="Group_768" data-name="Group 768">
      <path id="Path_22" data-name="Path 22" class="cls-2" d="M18,23.2a10.839,10.839,0,0,1-4.8-1.3,25.3,25.3,0,0,1-6.5-4.8,25.95,25.95,0,0,1-4.8-6.5C.2,7.1.1,4.2,1.8,2.6a.967.967,0,0,1,1.4,0A.967.967,0,0,1,3.2,4c-1,1-.8,3.2.5,5.8a23.609,23.609,0,0,0,4.4,6,23.609,23.609,0,0,0,6,4.4c2.6,1.3,4.8,1.5,5.8.5a.99.99,0,1,1,1.4,1.4A4.859,4.859,0,0,1,18,23.2Z"/>
      <path id="Path_23" data-name="Path 23" class="cls-2" d="M7.8,10.7a.961.961,0,0,1-.9-.6.883.883,0,0,1,.4-1.3L9.6,7.7a1.34,1.34,0,0,0,.8-1.3,1.012,1.012,0,0,0-.4-.7L6.7,2.3A1.442,1.442,0,0,0,5.4,2l-.6.3L3.2,4A.967.967,0,0,1,1.8,4a.967.967,0,0,1,0-1.4L3.4,1A2.851,2.851,0,0,1,4.8.2,3.586,3.586,0,0,1,8.1,1l3.3,3.3a3.379,3.379,0,0,1,.9,1.9,3.452,3.452,0,0,1-1.9,3.4L8.1,10.7C8.1,10.6,7.9,10.7,7.8,10.7Z"/>
      <path id="Path_24" data-name="Path 24" class="cls-2" d="M20.5,22.3a.908.908,0,0,1-.7-.3.967.967,0,0,1,0-1.4L21.4,19a.713.713,0,0,0,.3-.6,1.442,1.442,0,0,0-.3-1.3l-3.3-3.3a2.506,2.506,0,0,0-.7-.4,1.213,1.213,0,0,0-1.3.8L15,16.5a.883.883,0,0,1-1.3.4.883.883,0,0,1-.4-1.3l1.1-2.3a3.371,3.371,0,0,1,3.4-1.9,3.1,3.1,0,0,1,1.8.9l3.3,3.3a3.131,3.131,0,0,1,.8,3.3,3.924,3.924,0,0,1-.8,1.4L21.2,22A.908.908,0,0,1,20.5,22.3Z"/>
      <path id="Path_25" data-name="Path 25" class="cls-2" d="M14.1,17a1.421,1.421,0,0,1-.6-.2q-1.8-1.35-3.6-3a23.839,23.839,0,0,1-3-3.6,1.015,1.015,0,0,1,.3-1.4A1.058,1.058,0,0,1,8.6,9a21.322,21.322,0,0,0,2.8,3.3,40.947,40.947,0,0,0,3.3,2.8.9.9,0,0,1,.2,1.4C14.8,16.9,14.5,17,14.1,17Z"/>
    </g>
  </g>
</svg>
