<svg xmlns="http://www.w3.org/2000/svg" viewBox="18669 -4332 24 22">
  <defs>
    <style>
      .cls-1, .cls-2, .cls-3 {
        fill: #9692b7;
      }

      .cls-2 {
        stroke: #9692b7;
      }

      .cls-2, .cls-3 {
        stroke-linecap: round;
        stroke-linejoin: round;
        stroke-miterlimit: 10;
        stroke-width: 2px;
      }

      .cls-3 {
        stroke: #2d2d2d;
      }
    </style>
  </defs>
  <g id="suitcase" transform="translate(18669 -4333)">
    <path id="Path_29" data-name="Path 29" class="cls-1" d="M8,4H6A2.946,2.946,0,0,1,9,1V3A.945.945,0,0,0,8,4Z"/>
    <path id="Path_30" data-name="Path 30" class="cls-1" d="M18,4H16a.945.945,0,0,0-1-1V1A2.946,2.946,0,0,1,18,4Z"/>
    <path id="Path_31" data-name="Path 31" class="cls-1" d="M18,7H6V4H8V5h8V4h2Z"/>
    <rect id="Rectangle_1101" data-name="Rectangle 1101" class="cls-1" width="6" height="2" transform="translate(9 1)"/>
    <path id="Path_32" data-name="Path 32" class="cls-1" d="M21,23H3a2.946,2.946,0,0,1-3-3V8A2.946,2.946,0,0,1,3,5H21a2.946,2.946,0,0,1,3,3V20A2.946,2.946,0,0,1,21,23ZM3,7A.945.945,0,0,0,2,8V20a.945.945,0,0,0,1,1H21a.945.945,0,0,0,1-1V8a.945.945,0,0,0-1-1Z"/>
    <path id="Path_33" data-name="Path 33" class="cls-2" d="M23,12"/>
    <path id="Path_34" data-name="Path 34" class="cls-3" d="M1,12"/>
    <path id="Path_35" data-name="Path 35" class="cls-1" d="M19,15H5a.945.945,0,0,1-1-1V6A.945.945,0,0,1,5,5H19a.945.945,0,0,1,1,1v8A.945.945,0,0,1,19,15ZM6,13H18V7H6Z"/>
    <path id="Path_36" data-name="Path 36" class="cls-1" d="M14,16H10a1,1,0,0,1,0-2h4a1,1,0,0,1,0,2Z"/>
  </g>
</svg>
