<svg xmlns="http://www.w3.org/2000/svg" viewBox="16981 -4548 20 20">
  <defs>
    <style>
      .cls-1 {
        fill: #0f0a30;
      }
    </style>
  </defs>
  <g id="user-symbol-person" transform="translate(16981 -4548)">
    <path id="Path_18" data-name="Path 18" class="cls-1" d="M10,0A10,10,0,1,0,20,10,10,10,0,0,0,10,0Zm0,4.167A2.917,2.917,0,1,1,7.083,7.083,2.917,2.917,0,0,1,10,4.167Zm5.833,10.467a1.192,1.192,0,0,1-1.192,1.2H5.358a1.192,1.192,0,0,1-1.192-1.2V14.25a2.5,2.5,0,0,1,1.358-2.225A10,10,0,0,1,10,10.833a10,10,0,0,1,4.475,1.192,2.5,2.5,0,0,1,1.358,2.233Z"/>
  </g>
</svg>
